<svg width="800" height="800" viewBox="0 0 800 800" fill="none" xmlns="http://www.w3.org/2000/svg">
<rect x="0.5" y="0.5" width="799" height="799" stroke="black"/>
<path d="M256 679L332.895 581.475C335.689 577.931 340.86 577.399 344.318 580.299L393.254 621.342C396.871 624.376 402.314 623.635 404.988 619.745L467.098 529.403C469.549 525.837 474.393 524.867 478.029 527.214L559.249 579.642C562.973 582.046 567.941 580.964 570.328 577.23L603.74 524.97C604.563 523.684 605 522.188 605 520.661V406M605 406H588.5C584.082 406 580.5 402.418 580.5 398V339.5C580.5 335.082 584.082 331.5 588.5 331.5H599.664C602.895 331.5 605.809 333.444 607.05 336.427L631.392 394.927C633.585 400.196 629.713 406 624.006 406H605Z" stroke="white" stroke-width="16" stroke-linecap="round"/>
<path d="M484 144C506.402 144 517.603 144 526.159 148.359C533.686 152.194 539.806 158.314 543.641 165.841C548 174.397 548 185.598 548 208V540.952L484.344 499.832L483.787 499.482C472.036 492.299 456.656 495.531 448.811 506.942L392.79 588.426L352.179 554.364C341.116 545.086 324.659 546.618 315.485 557.654L315.054 558.188L255.9 633.21C252.001 624.769 252 613.583 252 592V208C252 185.598 252 174.397 256.359 165.841C260.194 158.314 266.314 152.194 273.841 148.359C282.397 144 293.598 144 316 144H484ZM341.457 566.274C341.479 566.291 341.5 566.308 341.521 566.324C341.5 566.308 341.479 566.291 341.457 566.274ZM341.063 565.993C341.08 566.004 341.095 566.016 341.111 566.027C341.077 566.004 341.042 565.98 341.008 565.957C341.026 565.969 341.045 565.981 341.063 565.993ZM340.63 565.716C340.645 565.725 340.66 565.736 340.676 565.745C340.628 565.716 340.58 565.687 340.532 565.659C340.565 565.678 340.598 565.696 340.63 565.716ZM340.249 565.498C340.29 565.52 340.33 565.543 340.37 565.565C340.33 565.543 340.29 565.52 340.249 565.498ZM339.695 565.219C339.811 565.273 339.927 565.33 340.041 565.389C339.927 565.33 339.811 565.273 339.695 565.219ZM339.224 565.014C339.264 565.03 339.304 565.047 339.345 565.063C339.304 565.047 339.264 565.03 339.224 565.014ZM338.498 564.752C338.536 564.764 338.573 564.776 338.61 564.788C338.573 564.776 338.536 564.764 338.498 564.752ZM338.18 564.656C338.211 564.665 338.243 564.674 338.274 564.684C338.243 564.674 338.211 564.665 338.18 564.656ZM333.333 195.2C322.132 195.2 316.532 195.2 312.254 197.38C308.491 199.297 305.431 202.357 303.514 206.12C301.334 210.398 301.333 215.999 301.333 227.2V316.8C301.333 328.001 301.334 333.602 303.514 337.88C305.431 341.643 308.491 344.703 312.254 346.62C316.532 348.8 322.132 348.8 333.333 348.8H466.667C477.868 348.8 483.468 348.8 487.746 346.62C491.509 344.703 494.569 341.643 496.486 337.88C498.666 333.602 498.667 328.001 498.667 316.8V227.2C498.667 215.999 498.666 210.398 496.486 206.12C494.569 202.357 491.509 199.297 487.746 197.38C483.468 195.2 477.868 195.2 466.667 195.2H333.333ZM339.518 565.138C339.577 565.164 339.636 565.191 339.695 565.219C339.636 565.191 339.577 565.164 339.518 565.138Z" fill="white"/>
<path d="M587 332L630 295" stroke="white" stroke-width="16" stroke-linecap="round"/>
<path d="M604 320V333" stroke="white" stroke-width="16" stroke-linecap="round"/>
<rect x="229" y="656" width="350" height="40" rx="20" fill="white"/>
</svg>
